M48
; DRILL file {KiCad (5.1.6)-1} date 08/06/20 21:01:59
; FORMAT={-:-/ absolute / inch / decimal}
; #@! TF.CreationDate,2020-08-06T21:01:59-05:00
; #@! TF.GenerationSoftware,Kicad,Pcbnew,(5.1.6)-1
FMAT,2
INCH
T1C0.0157
T2C0.0200
T3C0.0250
T4C0.0315
T5C0.0354
T6C0.0394
T7C0.0512
T8C0.0630
T9C0.1772
T10C0.1063
T11C0.1299
%
G90
G05
T1
X5.24Y-5.63
X5.35Y-5.545
X5.35Y-5.63
T2
X2.6631Y-5.58
X2.769Y-4.535
X2.769Y-4.65
X2.7781Y-2.77
X2.78Y-2.705
X2.81Y-2.65
X2.8281Y-4.66
X2.8331Y-4.535
X2.8331Y-4.725
X2.8481Y-3.625
X2.8481Y-3.675
X2.8481Y-3.725
X2.8481Y-3.775
X2.8481Y-3.825
X2.8481Y-3.875
X2.8481Y-3.925
X2.8481Y-3.975
X2.8481Y-4.025
X2.8481Y-4.075
X2.8481Y-4.125
X2.8531Y-4.78
X2.855Y-2.615
X2.8581Y-1.785
X2.8581Y-1.835
X2.8581Y-1.885
X2.8581Y-1.935
X2.8581Y-1.985
X2.8581Y-2.035
X2.8581Y-2.085
X2.8581Y-2.135
X2.8581Y-2.185
X2.8581Y-2.235
X2.8581Y-2.285
X2.8581Y-3.03
X2.8631Y-3.125
X2.8881Y-4.535
X2.8981Y-3.625
X2.8981Y-3.675
X2.8981Y-3.725
X2.8981Y-3.775
X2.8981Y-3.825
X2.8981Y-3.875
X2.8981Y-3.925
X2.8981Y-3.975
X2.8981Y-4.025
X2.8981Y-4.075
X2.8981Y-4.125
X2.905Y-2.615
X2.9081Y-1.785
X2.9081Y-1.835
X2.9081Y-1.885
X2.9081Y-1.935
X2.9081Y-1.985
X2.9081Y-2.035
X2.9081Y-2.085
X2.9081Y-2.135
X2.9081Y-2.185
X2.9081Y-2.235
X2.9081Y-2.285
X2.9231Y-3.035
X2.9331Y-4.49
X2.9444Y-3.11
X2.9481Y-3.625
X2.9481Y-3.675
X2.9481Y-3.725
X2.9481Y-3.775
X2.9481Y-3.825
X2.9481Y-3.875
X2.9481Y-3.925
X2.9481Y-3.975
X2.9481Y-4.025
X2.9481Y-4.075
X2.9481Y-4.125
X2.9581Y-1.785
X2.9581Y-1.835
X2.9581Y-1.885
X2.9581Y-1.935
X2.9581Y-1.985
X2.9581Y-2.035
X2.9581Y-2.085
X2.9581Y-2.135
X2.9581Y-2.185
X2.9581Y-2.235
X2.9581Y-2.285
X3.0081Y-3.275
X3.7881Y-1.815
X3.7881Y-1.865
X3.7881Y-1.915
X3.7881Y-1.965
X3.7881Y-2.015
X3.7881Y-2.065
X3.7881Y-2.115
X3.7881Y-2.165
X3.7881Y-2.215
X3.7881Y-2.265
X3.7881Y-2.315
X3.7931Y-3.465
X3.7931Y-3.515
X3.7931Y-3.565
X3.7931Y-3.615
X3.7931Y-3.665
X3.7931Y-3.715
X3.7931Y-3.765
X3.7931Y-3.815
X3.7931Y-3.865
X3.7931Y-3.915
X3.7931Y-3.965
X3.8381Y-1.815
X3.8381Y-1.865
X3.8381Y-1.915
X3.8381Y-1.965
X3.8381Y-2.015
X3.8381Y-2.065
X3.8381Y-2.115
X3.8381Y-2.165
X3.8381Y-2.215
X3.8381Y-2.265
X3.8381Y-2.315
X3.8431Y-3.465
X3.8431Y-3.515
X3.8431Y-3.565
X3.8431Y-3.615
X3.8431Y-3.665
X3.8431Y-3.715
X3.8431Y-3.765
X3.8431Y-3.815
X3.8431Y-3.865
X3.8431Y-3.915
X3.8431Y-3.965
X3.8881Y-1.815
X3.8881Y-1.865
X3.8881Y-1.915
X3.8881Y-1.965
X3.8881Y-2.015
X3.8881Y-2.065
X3.8881Y-2.115
X3.8881Y-2.165
X3.8881Y-2.215
X3.8881Y-2.265
X3.8881Y-2.315
X3.8931Y-3.465
X3.8931Y-3.515
X3.8931Y-3.565
X3.8931Y-3.615
X3.8931Y-3.665
X3.8931Y-3.715
X3.8931Y-3.765
X3.8931Y-3.815
X3.8931Y-3.865
X3.8931Y-3.915
X3.8931Y-3.965
X4.5831Y-2.84
X4.5881Y-2.655
X4.6Y-2.765
X4.6131Y-3.43
X4.63Y-2.71
X4.6531Y-4.255
X4.6531Y-4.415
X4.6631Y-3.395
X4.675Y-2.675
X4.6765Y-4.53
X4.6931Y-1.825
X4.6931Y-1.875
X4.6931Y-1.925
X4.6931Y-1.975
X4.6931Y-2.025
X4.6931Y-2.075
X4.6931Y-2.125
X4.6931Y-2.175
X4.6931Y-2.225
X4.6931Y-2.275
X4.6931Y-2.325
X4.6931Y-3.105
X4.6931Y-3.635
X4.6931Y-3.685
X4.6931Y-3.735
X4.6931Y-3.785
X4.6931Y-3.835
X4.6931Y-3.885
X4.6931Y-3.935
X4.6931Y-3.985
X4.6931Y-4.035
X4.6931Y-4.085
X4.6931Y-4.135
X4.7031Y-3.2
X4.7222Y-4.4799
X4.725Y-2.675
X4.7281Y-4.34
X4.7431Y-1.825
X4.7431Y-1.875
X4.7431Y-1.925
X4.7431Y-1.975
X4.7431Y-2.025
X4.7431Y-2.075
X4.7431Y-2.125
X4.7431Y-2.175
X4.7431Y-2.225
X4.7431Y-2.275
X4.7431Y-2.325
X4.7431Y-3.635
X4.7431Y-3.685
X4.7431Y-3.735
X4.7431Y-3.785
X4.7431Y-3.835
X4.7431Y-3.885
X4.7431Y-3.935
X4.7431Y-3.985
X4.7431Y-4.035
X4.7431Y-4.085
X4.7431Y-4.135
X4.7631Y-3.1
X4.7631Y-4.515
X4.7881Y-3.165
X4.7881Y-4.34
X4.7931Y-1.825
X4.7931Y-1.875
X4.7931Y-1.925
X4.7931Y-1.975
X4.7931Y-2.025
X4.7931Y-2.075
X4.7931Y-2.125
X4.7931Y-2.175
X4.7931Y-2.225
X4.7931Y-2.275
X4.7931Y-2.325
X4.7931Y-2.64
X4.7931Y-3.635
X4.7931Y-3.685
X4.7931Y-3.735
X4.7931Y-3.785
X4.7931Y-3.835
X4.7931Y-3.885
X4.7931Y-3.935
X4.7931Y-3.985
X4.7931Y-4.035
X4.7931Y-4.085
X4.7931Y-4.135
X4.7981Y-4.395
X4.8281Y-2.7
X4.8431Y-3.35
X4.8731Y-3.425
X4.8881Y-2.845
X4.8981Y-3.475
X5.5831Y-1.775
X5.5831Y-1.825
X5.5831Y-1.875
X5.5831Y-1.925
X5.5831Y-1.975
X5.5831Y-2.025
X5.5831Y-2.075
X5.5831Y-2.125
X5.5831Y-2.175
X5.5831Y-2.225
X5.5831Y-2.275
X5.5931Y-3.4
X5.5931Y-3.45
X5.5931Y-3.5
X5.5931Y-3.55
X5.5931Y-3.6
X5.5931Y-3.65
X5.5931Y-3.7
X5.5931Y-3.75
X5.5931Y-3.8
X5.5931Y-3.85
X5.5931Y-3.9
X5.6331Y-1.775
X5.6331Y-1.825
X5.6331Y-1.875
X5.6331Y-1.925
X5.6331Y-1.975
X5.6331Y-2.025
X5.6331Y-2.075
X5.6331Y-2.125
X5.6331Y-2.175
X5.6331Y-2.225
X5.6331Y-2.275
X5.6431Y-3.4
X5.6431Y-3.45
X5.6431Y-3.5
X5.6431Y-3.55
X5.6431Y-3.6
X5.6431Y-3.65
X5.6431Y-3.7
X5.6431Y-3.75
X5.6431Y-3.8
X5.6431Y-3.85
X5.6431Y-3.9
X5.9981Y-5.63
X6.08Y-6.05
X6.1181Y-5.6
X6.1981Y-5.585
X6.324Y-2.58
X6.3331Y-2.795
X6.3431Y-6.115
X6.345Y-2.675
X6.3531Y-3.425
X6.375Y-2.62
X6.3781Y-6.1667
X6.3931Y-6.09
X6.4131Y-3.38
X6.4131Y-4.305
X6.4131Y-4.46
X6.42Y-2.585
X6.4381Y-3.07
X6.4431Y-3.16
X6.4481Y-1.775
X6.4481Y-1.825
X6.4481Y-1.875
X6.4481Y-1.925
X6.4481Y-1.975
X6.4481Y-2.025
X6.4481Y-2.075
X6.4481Y-2.125
X6.4481Y-2.175
X6.4481Y-2.225
X6.4481Y-2.275
X6.4481Y-4.505
X6.4581Y-3.56
X6.4581Y-3.61
X6.4581Y-3.66
X6.4581Y-3.71
X6.4581Y-3.76
X6.4581Y-3.81
X6.4581Y-3.86
X6.4581Y-3.91
X6.4581Y-3.96
X6.4581Y-4.01
X6.4581Y-4.06
X6.47Y-2.585
X6.4781Y-4.355
X6.4781Y-5.955
X6.4981Y-1.775
X6.4981Y-1.825
X6.4981Y-1.875
X6.4981Y-1.925
X6.4981Y-1.975
X6.4981Y-2.025
X6.4981Y-2.075
X6.4981Y-2.125
X6.4981Y-2.175
X6.4981Y-2.225
X6.4981Y-2.275
X6.4981Y-5.695
X6.5031Y-3.06
X6.5081Y-3.165
X6.5081Y-3.56
X6.5081Y-3.61
X6.5081Y-3.66
X6.5081Y-3.71
X6.5081Y-3.76
X6.5081Y-3.81
X6.5081Y-3.86
X6.5081Y-3.91
X6.5081Y-3.96
X6.5081Y-4.01
X6.5081Y-4.06
X6.5181Y-4.4
X6.5381Y-4.27
X6.5481Y-1.775
X6.5481Y-1.825
X6.5481Y-1.875
X6.5481Y-1.925
X6.5481Y-1.975
X6.5481Y-2.025
X6.5481Y-2.075
X6.5481Y-2.125
X6.5481Y-2.175
X6.5481Y-2.225
X6.5481Y-2.275
X6.5531Y-2.61
X6.5581Y-3.56
X6.5581Y-3.61
X6.5581Y-3.66
X6.5581Y-3.71
X6.5581Y-3.76
X6.5581Y-3.81
X6.5581Y-3.86
X6.5581Y-3.91
X6.5581Y-3.96
X6.5581Y-4.01
X6.5581Y-4.06
X6.5831Y-3.32
X6.5931Y-2.655
X6.6381Y-3.395
X6.6431Y-2.87
X6.6681Y-3.445
X7.3731Y-3.48
X7.3731Y-3.53
X7.3731Y-3.58
X7.3731Y-3.63
X7.3731Y-3.68
X7.3731Y-3.73
X7.3731Y-3.78
X7.3731Y-3.83
X7.3731Y-3.88
X7.3731Y-3.93
X7.3731Y-3.98
X7.3831Y-1.745
X7.3831Y-1.795
X7.3831Y-1.845
X7.3831Y-1.895
X7.3831Y-1.945
X7.3831Y-1.995
X7.3831Y-2.045
X7.3831Y-2.095
X7.3831Y-2.145
X7.3831Y-2.195
X7.3831Y-2.245
X7.4231Y-3.48
X7.4231Y-3.53
X7.4231Y-3.58
X7.4231Y-3.63
X7.4231Y-3.68
X7.4231Y-3.73
X7.4231Y-3.78
X7.4231Y-3.83
X7.4231Y-3.88
X7.4231Y-3.93
X7.4231Y-3.98
X7.4331Y-1.745
X7.4331Y-1.795
X7.4331Y-1.845
X7.4331Y-1.895
X7.4331Y-1.945
X7.4331Y-1.995
X7.4331Y-2.045
X7.4331Y-2.095
X7.4331Y-2.145
X7.4331Y-2.195
X7.4331Y-2.245
T3
X2.2781Y-3.05
X2.2831Y-1.09
X2.2831Y-2.07
X2.2831Y-2.56
X2.2831Y-3.54
X2.2831Y-4.03
X2.2881Y-1.58
X2.2881Y-4.52
X2.3181Y-3.05
X2.3231Y-1.09
X2.3231Y-2.07
X2.3231Y-2.56
X2.3231Y-3.54
X2.3231Y-4.03
X2.3281Y-1.58
X2.3281Y-4.52
X2.3581Y-3.05
X2.3631Y-1.09
X2.3631Y-2.07
X2.3631Y-2.56
X2.3631Y-3.54
X2.3631Y-4.03
X2.3681Y-1.58
X2.3681Y-4.52
X2.7781Y-2.57
X2.7881Y-3.32
X2.8331Y-3.39
X3.0081Y-2.57
X3.0131Y-2.635
X3.0481Y-3.415
X3.0681Y-3.31
X3.076Y-2.775
X3.2831Y-2.085
X3.2831Y-2.575
X3.2831Y-3.065
X3.2831Y-3.555
X3.2831Y-4.045
X3.2831Y-4.53
X3.2881Y-1.595
X3.2931Y-1.105
X3.3231Y-2.085
X3.3231Y-2.575
X3.3231Y-3.065
X3.3231Y-3.555
X3.3231Y-4.045
X3.3231Y-4.53
X3.3281Y-1.595
X3.3331Y-1.105
X3.3631Y-2.085
X3.3631Y-2.575
X3.3631Y-3.065
X3.3631Y-3.555
X3.3631Y-4.045
X3.3631Y-4.53
X3.3681Y-1.595
X3.3731Y-1.105
X3.99Y-5.065
X4.045Y-5.065
X4.085Y-5.915
X4.1131Y-1.59
X4.1131Y-3.55
X4.1181Y-1.095
X4.1181Y-2.08
X4.1181Y-2.57
X4.1181Y-3.06
X4.1181Y-4.04
X4.1281Y-4.53
X4.1531Y-1.59
X4.1531Y-3.55
X4.1581Y-1.095
X4.1581Y-2.08
X4.1581Y-2.57
X4.1581Y-3.06
X4.1581Y-4.04
X4.1681Y-4.53
X4.1931Y-1.59
X4.1931Y-3.55
X4.1981Y-1.095
X4.1981Y-2.08
X4.1981Y-2.57
X4.1981Y-3.06
X4.1981Y-4.04
X4.2081Y-4.53
X4.245Y-5.7
X4.32Y-5.75
X4.405Y-5.76
X4.495Y-5.76
X4.6Y-4.9
X4.66Y-4.955
X5.0981Y-3.55
X5.1031Y-1.59
X5.1031Y-2.08
X5.1031Y-3.06
X5.1031Y-4.04
X5.1081Y-1.095
X5.1081Y-4.53
X5.1131Y-2.57
X5.1381Y-3.55
X5.1431Y-1.59
X5.1431Y-2.08
X5.1431Y-3.06
X5.1431Y-4.04
X5.1481Y-1.095
X5.1481Y-4.53
X5.1531Y-2.57
X5.175Y-5.945
X5.1781Y-3.55
X5.1831Y-1.59
X5.1831Y-2.08
X5.1831Y-3.06
X5.1831Y-4.04
X5.1881Y-1.095
X5.1881Y-4.53
X5.1931Y-2.57
X5.57Y-5.53
X5.5731Y-5.75
X5.63Y-5.53
X5.63Y-5.68
X5.8481Y-2.065
X5.8531Y-1.095
X5.8531Y-1.58
X5.8531Y-2.55
X5.8531Y-3.075
X5.8531Y-3.56
X5.8581Y-4.045
X5.8581Y-4.53
X5.8881Y-2.065
X5.8931Y-1.095
X5.8931Y-1.58
X5.8931Y-2.55
X5.8931Y-3.075
X5.8931Y-3.56
X5.8981Y-4.045
X5.8981Y-4.53
X5.9281Y-2.065
X5.9331Y-1.095
X5.9331Y-1.58
X5.9331Y-2.55
X5.9331Y-3.075
X5.9331Y-3.56
X5.9381Y-4.045
X5.9381Y-4.53
X6.2281Y-6.07
X6.2547Y-5.7966
X6.2553Y-5.9105
X6.335Y-5.565
X6.365Y-4.87
X6.5281Y-5.57
X6.5831Y-5.53
X6.8631Y-1.1
X6.8631Y-1.59
X6.8631Y-2.085
X6.8631Y-2.575
X6.8631Y-3.065
X6.8631Y-3.555
X6.8681Y-4.045
X6.8681Y-4.535
X6.9031Y-1.1
X6.9031Y-1.59
X6.9031Y-2.085
X6.9031Y-2.575
X6.9031Y-3.065
X6.9031Y-3.555
X6.9081Y-4.045
X6.9081Y-4.535
X6.9431Y-1.1
X6.9431Y-1.59
X6.9431Y-2.085
X6.9431Y-2.575
X6.9431Y-3.065
X6.9431Y-3.555
X6.9481Y-4.045
X6.9481Y-4.535
T4
X2.635Y-5.105
X2.635Y-5.2034
X2.5781Y-5.36
X2.5781Y-5.66
X5.6181Y-6.06
X5.8103Y-6.06
T5
X6.7982Y-5.655
X6.7982Y-5.755
X6.7982Y-5.855
X6.7982Y-5.955
X6.8982Y-5.705
X6.8982Y-5.805
X6.8982Y-5.905
X6.8982Y-6.005
X7.2812Y-5.979
X7.2812Y-5.5809
X7.341Y-5.681
X7.341Y-6.079
T6
X3.1981Y-6.03
X3.1981Y-6.13
X3.2981Y-6.03
X3.2981Y-6.13
X3.3981Y-6.03
X3.3981Y-6.13
X3.4981Y-6.03
X3.4981Y-6.13
X3.5981Y-6.03
X3.5981Y-6.13
X3.6981Y-6.03
X3.6981Y-6.13
X3.7981Y-6.03
X3.7981Y-6.13
X3.8981Y-6.03
X3.8981Y-6.13
X3.9981Y-6.03
X3.9981Y-6.13
X4.0981Y-6.03
X4.0981Y-6.13
X4.1981Y-6.03
X4.1981Y-6.13
X4.2981Y-6.03
X4.2981Y-6.13
X4.3981Y-6.03
X4.3981Y-6.13
X4.4981Y-6.03
X4.4981Y-6.13
X4.5981Y-6.03
X4.5981Y-6.13
X4.6981Y-6.03
X4.6981Y-6.13
X4.7981Y-6.03
X4.7981Y-6.13
X4.8981Y-6.03
X4.8981Y-6.13
X4.9981Y-6.03
X4.9981Y-6.13
X5.0981Y-6.03
X5.0981Y-6.13
T7
X2.4931Y-4.6015
X2.4931Y-4.7984
X2.4931Y-1.1565
X2.4931Y-1.3534
X6.0581Y-1.6515
X6.0581Y-1.8484
X4.3181Y-1.1565
X4.3181Y-1.3534
X4.3131Y-4.1265
X4.3131Y-4.3234
X4.3131Y-4.6215
X4.3131Y-4.8184
X7.0681Y-4.1265
X7.0681Y-4.3234
X2.4931Y-4.1094
X2.4931Y-4.3062
X5.3081Y-1.1515
X5.3081Y-1.3484
X5.3081Y-4.6215
X5.3081Y-4.8184
X6.0581Y-3.1365
X6.0581Y-3.3334
X3.5131Y-4.123
X3.5131Y-4.3199
X6.0581Y-4.1265
X6.0581Y-4.3234
X3.5131Y-4.6174
X3.5131Y-4.8143
X6.0581Y-3.6315
X6.0581Y-3.8284
X6.0581Y-2.1465
X6.0581Y-2.3434
X4.3181Y-2.6415
X4.3181Y-2.8384
X6.0581Y-1.1565
X6.0581Y-1.3534
X7.0681Y-3.1365
X7.0681Y-3.3334
X5.3081Y-3.6315
X5.3081Y-3.8284
X2.4931Y-2.1408
X2.4931Y-2.3377
X2.4931Y-2.633
X2.4931Y-2.8298
X7.0681Y-4.6215
X7.0681Y-4.8184
X5.3081Y-2.6365
X5.3081Y-2.8334
X4.3131Y-3.6315
X4.3131Y-3.8284
X5.3081Y-2.1415
X5.3081Y-2.3384
X3.5131Y-1.651
X3.5131Y-1.8478
X2.4931Y-3.6172
X2.4931Y-3.8141
X2.4931Y-1.6487
X2.4931Y-1.8455
X7.0681Y-1.6515
X7.0681Y-1.8484
X5.3081Y-1.6465
X5.3081Y-1.8434
X3.5131Y-3.6286
X3.5131Y-3.8255
X3.5131Y-3.1342
X3.5131Y-3.331
X5.3081Y-3.1315
X5.3081Y-3.3284
X7.0681Y-2.6415
X7.0681Y-2.8384
X7.0681Y-1.1565
X7.0681Y-1.3534
X6.0581Y-4.6215
X6.0581Y-4.8184
X5.3081Y-4.1265
X5.3081Y-4.3234
X4.3181Y-3.1365
X4.3181Y-3.3334
X3.5131Y-2.6398
X3.5131Y-2.8366
X7.0681Y-3.6315
X7.0681Y-3.8284
X7.0681Y-2.1465
X7.0681Y-2.3434
X2.4931Y-3.1251
X2.4931Y-3.322
X6.0581Y-2.6415
X6.0581Y-2.8384
X3.5131Y-2.1454
X3.5131Y-2.3422
X3.5131Y-1.1565
X3.5131Y-1.3534
X4.3181Y-1.6515
X4.3181Y-1.8484
X4.3181Y-2.1465
X4.3181Y-2.3434
T8
X7.0281Y-5.52
X7.0281Y-6.14
T9
X2.2756Y-5.6925
X2.2781Y-5.2225
T10
X7.315Y-5.215
X7.5Y-0.975
X3.0081Y-6.08
X2.94Y-1.015
X2.665Y-6.02
T11
X7.1482Y-5.605
X7.1482Y-6.055
T0
M30
